#!OML:ASF H:\ManfredETheater\Project 1\Capture day 1\Session 1\subject.ASF
:FULLY-SPECIFIED
:DEGREES
310
root -1.47421 17.1517 47.0117 -0.379061 -5.97904 1.49381
lowerback 8.01851 -0.661477 -4.2015
upperback -1.88039 -1.26517 0.922088
thorax -6.3695 -0.441865 3.5019
lowerneck -19.8759 -3.53691 -4.34797
upperneck 10.7077 -4.12882 3.48588
head 6.65282 -1.8634 1.36161
rclavicle -6.97299e-016 6.36111e-015
rhumerus -45.7404 -20.7214 -65.5694
rradius 33.9605
rwrist -1.53845
rhand -20.115 -14.1346
rfingers 7.12502
rthumb 6.22884 -44.023
lclavicle -6.97299e-016 6.36111e-015
lhumerus -39.979 10.7862 75.4992
lradius 39.0639
lwrist -10.7413
lhand -8.20443 9.81837
lfingers 7.12502
lthumb 17.7121 39.0317
rfemur -18.4724 -12.1128 12.2434
rtibia 64.615
rfoot -7.30473 7.04364
rtoes 0.667869
lfemur -14.7879 0.109972 -24.369
ltibia 33.4352
lfoot -13.055 1.79474
ltoes 0.2556
311
root -1.4819 17.1495 47.0628 -0.409339 -5.96356 1.48281
lowerback 7.98686 -0.641321 -4.22132
upperback -1.87931 -1.23805 0.935977
thorax -6.35212 -0.427966 3.52343
lowerneck -19.7709 -3.54394 -4.37954
upperneck 10.6836 -4.14087 3.53055
head 6.63021 -1.8678 1.38105
rclavicle 1.46604e-014 6.75868e-015
rhumerus -45.7514 -20.7231 -65.533
rradius 33.9415
rwrist -1.45195
rhand -20.048 -14.1035
rfingers 7.12502
rthumb 6.29348 -43.99
lclavicle 1.46604e-014 6.75868e-015
lhumerus -39.8828 10.3217 75.7597
lradius 39.6377
lwrist -10.3657
lhand -8.36755 9.81972
lfingers 7.12502
lthumb 17.5552 39.0471
rfemur -18.7061 -12.0988 12.282
rtibia 64.0213
rfoot -8.16914 5.99756
rtoes 0.799788
lfemur -14.5679 0.0897653 -24.3531
ltibia 33.4629
lfoot -13.2453 1.85046
ltoes 0.273503
312
root -1.48994 17.1463 47.1134 -0.435653 -5.93866 1.50488
lowerback 7.94864 -0.623383 -4.2622
upperback -1.88243 -1.2166 0.937572
thorax -6.33487 -0.416237 3.54457
lowerneck -19.6673 -3.54724 -4.40777
upperneck 10.6632 -4.14883 3.57498
head 6.60882 -1.87011 1.40031
rclavicle 2.09656e-014 -3.77691e-015
rhumerus -45.7525 -20.716 -65.5127
rradius 33.9259
rwrist -1.34504
rhand -19.9636 -14.0604
rfingers 7.12502
rthumb 6.37495 -43.9445
lclavicle 2.09656e-014 -3.77691e-015
lhumerus -39.8032 9.86146 76.0037
lradius 40.2347
lwrist -10.0048
lhand -8.52416 9.79138
lfingers 7.12502
lthumb 17.4044 39.0322
rfemur -18.897 -12.0475 12.2754
rtibia 63.3
rfoot -9.00751 5.07628
rtoes 0.857008
lfemur -14.3543 0.084803 -24.3717
ltibia 33.4873
lfoot -13.4456 1.88317
ltoes 0.299567
313
root -1.49881 17.1421 47.1626 -0.454241 -5.91167 1.53567
lowerback 7.91681 -0.606565 -4.30913
upperback -1.89192 -1.19786 0.93585
thorax -6.32779 -0.405285 3.56625
lowerneck -19.5758 -3.54635 -4.42992
upperneck 10.6514 -4.15212 3.61702
head 6.59177 -1.86998 1.41821
rclavicle 1.69557e-014 -9.93923e-016
rhumerus -45.7404 -20.7027 -65.5083
rradius 33.9159
rwrist -1.2296
rhand -19.8707 -14.0067
rfingers 7.12502
rthumb 6.46465 -43.888
lclavicle 1.69557e-014 -9.93923e-016
lhumerus -39.7352 9.41625 76.2272
lradius 40.8433
lwrist -9.65398
lhand -8.67498 9.73301
lfingers 7.12502
lthumb 17.2593 38.9866
rfemur -19.053 -11.9446 12.2577
rtibia 62.4579
rfoot -9.80203 4.24881
rtoes 0.929123
lfemur -14.1565 0.0987154 -24.394
ltibia 33.5136
lfoot -13.651 1.89386
ltoes 0.321477
314
root -1.5085 17.1371 47.211 -0.465503 -5.87542 1.58141
lowerback 7.88358 -0.59198 -4.36663
upperback -1.90751 -1.18349 0.929563
thorax -6.32593 -0.395924 3.58974
lowerneck -19.4882 -3.54404 -4.45312
upperneck 10.6437 -4.1533 3.65974
head 6.57666 -1.8688 1.43667
rclavicle 3.88562e-015 7.35503e-015
rhumerus -45.7249 -20.6879 -65.5112
rradius 33.9152
rwrist -1.117
rhand -19.7786 -13.9454
rfingers 7.12502
rthumb 6.55356 -43.824
lclavicle 3.88562e-015 7.35503e-015
lhumerus -39.682 8.99341 76.4305
lradius 41.4599
lwrist -9.31876
lhand -8.82123 9.65344
lfingers 7.12502
lthumb 17.1185 38.9193
rfemur -19.17 -11.8045 12.2169
rtibia 61.5018
rfoot -10.5639 3.51166
rtoes 1.03669
lfemur -13.9736 0.129846 -24.4276
ltibia 33.5439
lfoot -13.8624 1.87852
ltoes 0.335683
315
root -1.5193 17.1317 47.2584 -0.468874 -5.83508 1.62481
lowerback 7.84847 -0.578041 -4.42102
upperback -1.92681 -1.16961 0.923466
thorax -6.32696 -0.386765 3.61176
lowerneck -19.4111 -3.54096 -4.47246
upperneck 10.6433 -4.15347 3.69771
head 6.56537 -1.86725 1.45294
rclavicle -1.68656e-014 -9.93923e-016
rhumerus -45.7078 -20.6776 -65.521
rradius 33.9273
rwrist -1.01733
rhand -19.6953 -13.8968
rfingers 7.12502
rthumb 6.63399 -43.7729
lclavicle -1.68656e-014 -9.93923e-016
lhumerus -39.6366 8.59869 76.6123
lradius 42.0749
lwrist -8.995
lhand -8.96627 9.56653
lfingers 7.12502
lthumb 16.9789 38.8444
rfemur -19.2485 -11.6183 12.1752
rtibia 60.4376
rfoot -11.2993 2.84307
rtoes 1.09002
lfemur -13.8062 0.176035 -24.4515
ltibia 33.5799
lfoot -14.0774 1.84
ltoes 0.344058
316
root -1.53136 17.126 47.3047 -0.462414 -5.79187 1.66075
lowerback 7.81181 -0.564013 -4.4698
upperback -1.95131 -1.15487 0.91993
thorax -6.33277 -0.377116 3.63325
lowerneck -19.339 -3.53857 -4.49127
upperneck 10.6469 -4.15406 3.73217
head 6.55609 -1.86614 1.46785
rclavicle -1.38652e-014 -1.23246e-014
rhumerus -45.6907 -20.6715 -65.5352
rradius 33.9508
rwrist -0.939671
rhand -19.627 -13.8629
rfingers 7.12502
rthumb 6.69987 -43.7369
lclavicle -1.38652e-014 -1.23246e-014
lhumerus -39.5977 8.23733 76.7728
lradius 42.6763
lwrist -8.68531
lhand -9.11545 9.47139
lfingers 7.12502
lthumb 16.8353 38.7616
rfemur -19.2919 -11.3839 12.1401
rtibia 59.2727
rfoot -12.0091 2.22216
rtoes 1.10624
lfemur -13.656 0.229693 -24.4596
ltibia 33.619
lfoot -14.2917 1.78736
ltoes 0.340172
